NOTE:-

ITS A VOB FORMAT MAKING.

THIS FOLDER HAS 3 MAJOR FILES AND THE QUALITIES AND DETAILS OF ALL THE THREE MFILES HAS BEEN MENTION BELOW.


Complete name                    : MAKING OF TELUGU MOVIE MAGADHEERA BY~~loveislifeforlovers@gmail.com~~NIKHILVIDEO_TSVTS_03_1.VOB


Format                           : MPEG-PS
File size                        : 1 024 MiB
Duration                         : 19mn 16s
Overall bit rate                 : 7 428 Kbps

Video
ID                               : 224 (0xE0)
Format                           : MPEG Video
Format version                   : Version 2
Format profile                   : Main@Main
Format settings, BVOP            : Yes
Format settings, Matrix          : Default
Duration                         : 19mn 16s
Bit rate mode                    : Variable
Bit rate                         : 6 685 Kbps
Nominal bit rate                 : 8 200 Kbps
Width                            : 720 pixels
Height                           : 480 pixels
Display aspect ratio             : 4:3
Frame rate                       : 29.970 fps
Standard                         : NTSC
Resolution                       : 8 bits
Colorimetry                      : 4:2:0
Scan type                        : Interlaced
Scan order                       : Bottom Field First
Bits/(Pixel*Frame)               : 0.645
Stream size                      : 921 MiB (90%)

Audio
ID                               : 128 (0x80)
Format                           : AC-3
Format/Info                      : Audio Coding 3
Duration                         : 19mn 16s
Bit rate mode                    : Constant
Bit rate                         : 448 Kbps
Channel(s)                       : 6 channels
Channel positions                : Front: L C R, Surround: L R, LFE
Sampling rate                    : 48.0 KHz
Stream size                      : 61.7 MiB (6%)


General
Complete name                    : MAKING OF TELUGU MOVIE MAGADHEERA BY~~loveislifeforlovers@gmail.com~~NIKHILVIDEO_TSVTS_03_2.VOB
 
http://www.dhruvplanet.com/wp-content/uploads/2009/06/magadheera-wallpaper.jpg

Format                           : MPEG-PS
File size                        : 1 024 MiB
Duration                         : 19mn 8s
Overall bit rate                 : 7 481 Kbps

Video
ID                               : 224 (0xE0)
Format                           : MPEG Video
Format version                   : Version 2
Format profile                   : Main@Main
Format settings, BVOP            : Yes
Format settings, Matrix          : Default
Duration                         : 19mn 7s
Bit rate mode                    : Variable
Bit rate                         : 6 736 Kbps
Nominal bit rate                 : 8 200 Kbps
Width                            : 720 pixels
Height                           : 480 pixels
Display aspect ratio             : 4:3
Frame rate                       : 29.970 fps
Standard                         : NTSC
Resolution                       : 8 bits
Colorimetry                      : 4:2:0
Scan type                        : Interlaced
Scan order                       : Bottom Field First
Bits/(Pixel*Frame)               : 0.650
Stream size                      : 922 MiB (90%)
 
http://s.chakpak.com/se_images/3414273_-1_564_none/magadheera-wallpaper.jpg

Audio
ID                               : 128 (0x80)
Format                           : AC-3
Format/Info                      : Audio Coding 3
Duration                         : 19mn 8s
Bit rate mode                    : Constant
Bit rate                         : 448 Kbps
Channel(s)                       : 6 channels
Channel positions                : Front: L C R, Surround: L R, LFE
Sampling rate                    : 48.0 KHz
Video delay                      : -590ms
Stream size                      : 61.3 MiB (6%)



General
Complete name                    : MAKING OF TELUGU MOVIE MAGADHEERA BY~~loveislifeforlovers@gmail.com~~NIKHILVIDEO_TSVTS_03_3.VOB
 
http://s.chakpak.com/se_images/5210369_-1_564_none/magadheera-wallpaper.jpg

Format                           : MPEG-PS
File size                        : 699 MiB
Duration                         : 13mn 5s
Overall bit rate                 : 7 467 Kbps

Video
ID                               : 224 (0xE0)
Format                           : MPEG Video
Format version                   : Version 2
Format profile                   : Main@Main
Format settings, BVOP            : Yes
Format settings, Matrix          : Default
Duration                         : 13mn 5s
Bit rate mode                    : Variable
Bit rate                         : 6 723 Kbps
Nominal bit rate                 : 8 200 Kbps
Width                            : 720 pixels
Height                           : 480 pixels
Display aspect ratio             : 4:3
Frame rate                       : 29.970 fps
Standard                         : NTSC
Resolution                       : 8 bits
Colorimetry                      : 4:2:0
Scan type                        : Interlaced
Scan order                       : Bottom Field First
Bits/(Pixel*Frame)               : 0.649
Stream size                      : 629 MiB (90%)
 
http://indianewz.com/wp-content/uploads/2009/06/magadheera-1.jpg

Audio
ID                               : 128 (0x80)
Format                           : AC-3
Format/Info                      : Audio Coding 3
Duration                         : 13mn 5s
Bit rate mode                    : Constant
Bit rate                         : 448 Kbps
Channel(s)                       : 6 channels
Channel positions                : Front: L C R, Surround: L R, LFE
Sampling rate                    : 48.0 KHz
Video delay                      : -409ms
Stream size                      : 41.9 MiB (6%)

DISC COVER:- 
http://i894.photobucket.com/albums/ac145/nikhilsweet/Picture11.jpg


RIPPED BY N XTRACTED BY -- NIKHIL VARMA


pls forward ur comment for the further posing as such ones....

THIS TORRENT IS BROUGHT TO U BY...
  
http://i894.photobucket.com/albums/ac145/nikhilsweet/cooltext432403806.png
		


